<svg xmlns="http://www.w3.org/2000/svg" version="1.1" xmlns:xlink="http://www.w3.org/1999/xlink" xmlns:svgjs="http://svgjs.dev/svgjs" viewBox="0 0 8.197365329902622 6.641570835739394"><g transform="matrix(1,0,0,1,0.6142002430763123,4.879870592663082)"><rect width="8.197365329902622" height="8.197365329902622" x="-0.6142002430763118" y="-5.657767839744697" fill="#000000"></rect><g><path d=" M 0.4365 0.17849999999999988 C 0.5295 0.17849999999999988 0.5295 0.1874999999999999 0.5595 0.22049999999999992 C 0.585 0.25049999999999983 0.597 0.26249999999999984 0.6165 0.26249999999999984 C 0.6405 0.26249999999999984 0.657 0.24599999999999989 0.657 0.22199999999999986 L 0.657 0.038999999999999924 C 0.657 0.014999999999999902 0.6405 -2.220446049250313e-16 0.6165 -2.220446049250313e-16 C 0.6075 -2.220446049250313e-16 0.5925 0.0014999999999998348 0.5670000000000001 0.0044999999999999485 C 0.537 0.008999999999999897 0.498 0.013499999999999845 0.47400000000000003 0.013499999999999845 L 0.198 0.013499999999999845 C 0.0915 0.013499999999999845 0.07200000000000001 -2.220446049250313e-16 0.048 -2.220446049250313e-16 C 0.024 -2.220446049250313e-16 0.015 0.010499999999999954 0.015 0.034499999999999975 L 0.015 0.23099999999999987 C 0.015 0.2489999999999999 0.025500000000000002 0.26249999999999984 0.042 0.26249999999999984 C 0.063 0.26249999999999984 0.0765 0.24749999999999994 0.1095 0.21899999999999986 C 0.14250000000000002 0.1904999999999999 0.1515 0.17849999999999988 0.23550000000000001 0.17849999999999988 L 0.23550000000000001 0.9944999999999999 C 0.23550000000000001 1.0545 0.171 1.089 0.171 1.1204999999999998 C 0.171 1.134 0.183 1.146 0.20400000000000001 1.146 L 0.468 1.146 C 0.489 1.146 0.501 1.134 0.501 1.1204999999999998 C 0.501 1.089 0.4365 1.0545 0.4365 0.9944999999999999 M 0.9315146484375001 0.7424999999999999 L 1.0305146484375 0.32099999999999984 L 1.1025146484375 0.6509999999999999 M 1.3830146484374999 0.9614999999999999 C 1.3665146484375001 0.9015 1.1820146484375 0.16499999999999992 1.1820146484375 0.11849999999999983 C 1.1820146484375 0.08999999999999986 1.2210146484375 0.058499999999999774 1.2210146484375 0.04049999999999998 C 1.2210146484375 0.0239999999999998 1.2090146484375 0.013499999999999845 1.1880146484375 0.013499999999999845 L 0.8775146484375 0.013499999999999845 C 0.8565146484375 0.013499999999999845 0.8445146484375 0.0239999999999998 0.8445146484375 0.04049999999999998 C 0.8445146484375 0.058499999999999774 0.8835146484375 0.08999999999999986 0.8835146484375 0.11849999999999983 C 0.8835146484375 0.16499999999999992 0.6795146484375 0.966 0.6675146484375 1.0125 C 0.6540146484375 1.065 0.5955146484375 1.095 0.5955146484375 1.119 C 0.5955146484375 1.1355 0.6075146484375 1.146 0.6285146484375 1.146 L 0.8955146484375001 1.146 C 0.9195146484375001 1.146 0.9300146484375 1.134 0.9300146484375 1.119 C 0.9300146484375 1.095 0.8760146484375 1.0755 0.8760146484375 1.017 L 0.8760146484375 0.9764999999999999 L 1.1475146484375 0.8294999999999999 C 1.1475146484375 0.8294999999999999 1.1970146484375 1.0319999999999998 1.1970146484375 1.0425 C 1.1970146484375 1.0785 1.1580146484375 1.095 1.1580146484375 1.119 C 1.1580146484375 1.134 1.1685146484375 1.146 1.1925146484375 1.146 L 1.4385146484375 1.146 C 1.4595146484375001 1.146 1.4715146484375001 1.1355 1.4715146484375001 1.119 C 1.4715146484375001 1.095 1.4070146484375 1.053 1.3830146484374999 0.9614999999999999 M 1.663505126953125 1.146 L 1.929005126953125 1.146 C 2.001005126953125 1.146 2.071505126953125 1.0844999999999998 2.071505126953125 1.023 L 2.071505126953125 0.714 C 2.071505126953125 0.6495 2.044505126953125 0.6194999999999999 1.995005126953125 0.5864999999999999 L 1.744505126953125 0.4139999999999999 C 1.720505126953125 0.3959999999999999 1.716005126953125 0.3839999999999999 1.716005126953125 0.3629999999999999 L 1.716005126953125 0.17849999999999988 L 1.855505126953125 0.17849999999999988 L 1.855505126953125 0.2789999999999999 C 1.855505126953125 0.31799999999999984 1.867505126953125 0.3314999999999999 1.881005126953125 0.3404999999999999 C 1.906505126953125 0.3569999999999999 1.987505126953125 0.4139999999999999 2.023505126953125 0.4139999999999999 C 2.038505126953125 0.4139999999999999 2.056505126953125 0.3959999999999999 2.056505126953125 0.3689999999999999 L 2.056505126953125 0.13649999999999984 C 2.056505126953125 0.07499999999999996 1.998005126953125 0.013499999999999845 1.908005126953125 0.013499999999999845 L 1.657505126953125 0.013499999999999845 C 1.578005126953125 0.013499999999999845 1.515005126953125 0.053999999999999826 1.515005126953125 0.12899999999999978 L 1.515005126953125 0.4274999999999999 C 1.515005126953125 0.49349999999999994 1.552505126953125 0.5249999999999999 1.596005126953125 0.5549999999999999 L 1.843505126953125 0.726 C 1.8630051269531251 0.7394999999999998 1.870505126953125 0.7529999999999999 1.870505126953125 0.7725 L 1.870505126953125 0.9809999999999999 L 1.716005126953125 0.9809999999999999 L 1.716005126953125 0.8399999999999999 C 1.716005126953125 0.8009999999999999 1.704005126953125 0.7874999999999999 1.690505126953125 0.7785 C 1.666505126953125 0.7605 1.584005126953125 0.7049999999999998 1.554005126953125 0.7049999999999998 C 1.533005126953125 0.7049999999999998 1.515005126953125 0.7214999999999999 1.515005126953125 0.7484999999999999 L 1.515005126953125 1.023 C 1.515005126953125 1.0844999999999998 1.575005126953125 1.146 1.663505126953125 1.146 M 2.92348828125 1.119 C 2.92348828125 1.0919999999999999 2.87998828125 1.0875 2.83948828125 1.0139999999999998 L 2.57698828125 0.5324999999999999 L 2.80948828125 0.1469999999999999 C 2.84098828125 0.09599999999999986 2.8919882812499997 0.0674999999999999 2.8919882812499997 0.04349999999999987 C 2.8919882812499997 0.025499999999999856 2.87998828125 0.013499999999999845 2.85448828125 0.013499999999999845 L 2.59798828125 0.013499999999999845 C 2.58148828125 0.013499999999999845 2.56648828125 0.0239999999999998 2.56648828125 0.038999999999999924 C 2.56648828125 0.05999999999999983 2.59648828125 0.07499999999999996 2.59648828125 0.10799999999999987 C 2.59648828125 0.11399999999999988 2.58898828125 0.12749999999999995 2.58898828125 0.12749999999999995 L 2.42998828125 0.4109999999999999 L 2.42998828125 0.16499999999999992 C 2.42998828125 0.10499999999999998 2.4944882812499998 0.07049999999999979 2.4944882812499998 0.038999999999999924 C 2.4944882812499998 0.0239999999999998 2.4824882812499998 0.013499999999999845 2.46148828125 0.013499999999999845 L 2.19748828125 0.013499999999999845 C 2.1764882812499997 0.013499999999999845 2.1644882812499997 0.025499999999999856 2.1644882812499997 0.038999999999999924 C 2.1644882812499997 0.07049999999999979 2.22898828125 0.10499999999999998 2.22898828125 0.16499999999999992 L 2.22898828125 0.9944999999999999 C 2.22898828125 1.0545 2.1644882812499997 1.089 2.1644882812499997 1.1204999999999998 C 2.1644882812499997 1.134 2.1764882812499997 1.146 2.19748828125 1.146 L 2.46148828125 1.146 C 2.4824882812499998 1.146 2.4944882812499998 1.134 2.4944882812499998 1.1204999999999998 C 2.4944882812499998 1.089 2.42998828125 1.0545 2.42998828125 0.9944999999999999 L 2.42998828125 0.7665 L 2.44948828125 0.7304999999999999 L 2.6219882812499997 1.0379999999999998 C 2.64148828125 1.0755 2.59648828125 1.0875 2.59648828125 1.1204999999999998 C 2.59648828125 1.134 2.60848828125 1.146 2.62948828125 1.146 L 2.8904882812499997 1.146 C 2.91148828125 1.146 2.92348828125 1.1324999999999998 2.92348828125 1.119 M 3.23700439453125 0.16499999999999992 C 3.23700439453125 0.10499999999999998 3.30150439453125 0.07049999999999979 3.30150439453125 0.038999999999999924 C 3.30150439453125 0.025499999999999856 3.28950439453125 0.013499999999999845 3.26850439453125 0.013499999999999845 L 3.00450439453125 0.013499999999999845 C 2.98350439453125 0.013499999999999845 2.97150439453125 0.025499999999999856 2.97150439453125 0.038999999999999924 C 2.97150439453125 0.07049999999999979 3.03600439453125 0.10499999999999998 3.03600439453125 0.16499999999999992 L 3.03600439453125 0.9944999999999999 C 3.03600439453125 1.0545 2.97150439453125 1.089 2.97150439453125 1.1204999999999998 C 2.97150439453125 1.134 2.98350439453125 1.146 3.00450439453125 1.146 L 3.26850439453125 1.146 C 3.28950439453125 1.146 3.30150439453125 1.134 3.30150439453125 1.1204999999999998 C 3.30150439453125 1.089 3.23700439453125 1.0545 3.23700439453125 0.9944999999999999 M 3.7710190429687502 0.17849999999999988 C 3.86401904296875 0.17849999999999988 3.86401904296875 0.1874999999999999 3.89401904296875 0.22049999999999992 C 3.91951904296875 0.25049999999999983 3.93151904296875 0.26249999999999984 3.95101904296875 0.26249999999999984 C 3.97501904296875 0.26249999999999984 3.99151904296875 0.24599999999999989 3.99151904296875 0.22199999999999986 L 3.99151904296875 0.038999999999999924 C 3.99151904296875 0.014999999999999902 3.97501904296875 -2.220446049250313e-16 3.95101904296875 -2.220446049250313e-16 C 3.94201904296875 -2.220446049250313e-16 3.92701904296875 0.0014999999999998348 3.9015190429687503 0.0044999999999999485 C 3.87151904296875 0.008999999999999897 3.83251904296875 0.013499999999999845 3.8085190429687503 0.013499999999999845 L 3.53251904296875 0.013499999999999845 C 3.42601904296875 0.013499999999999845 3.40651904296875 -2.220446049250313e-16 3.38251904296875 -2.220446049250313e-16 C 3.35851904296875 -2.220446049250313e-16 3.3495190429687502 0.010499999999999954 3.3495190429687502 0.034499999999999975 L 3.3495190429687502 0.23099999999999987 C 3.3495190429687502 0.2489999999999999 3.36001904296875 0.26249999999999984 3.37651904296875 0.26249999999999984 C 3.3975190429687503 0.26249999999999984 3.41101904296875 0.24749999999999994 3.4440190429687503 0.21899999999999986 C 3.47701904296875 0.1904999999999999 3.48601904296875 0.17849999999999988 3.57001904296875 0.17849999999999988 L 3.57001904296875 0.9944999999999999 C 3.57001904296875 1.0545 3.50551904296875 1.089 3.50551904296875 1.1204999999999998 C 3.50551904296875 1.134 3.51751904296875 1.146 3.5385190429687503 1.146 L 3.80251904296875 1.146 C 3.82351904296875 1.146 3.83551904296875 1.134 3.83551904296875 1.1204999999999998 C 3.83551904296875 1.089 3.7710190429687502 1.0545 3.7710190429687502 0.9944999999999999 M 4.21801611328125 1.146 L 4.48351611328125 1.146 C 4.55551611328125 1.146 4.62601611328125 1.0844999999999998 4.62601611328125 1.023 L 4.62601611328125 0.714 C 4.62601611328125 0.6495 4.59901611328125 0.6194999999999999 4.54951611328125 0.5864999999999999 L 4.29901611328125 0.4139999999999999 C 4.27501611328125 0.3959999999999999 4.27051611328125 0.3839999999999999 4.27051611328125 0.3629999999999999 L 4.27051611328125 0.17849999999999988 L 4.41001611328125 0.17849999999999988 L 4.41001611328125 0.2789999999999999 C 4.41001611328125 0.31799999999999984 4.422016113281249 0.3314999999999999 4.43551611328125 0.3404999999999999 C 4.46101611328125 0.3569999999999999 4.5420161132812495 0.4139999999999999 4.57801611328125 0.4139999999999999 C 4.59301611328125 0.4139999999999999 4.6110161132812495 0.3959999999999999 4.6110161132812495 0.3689999999999999 L 4.6110161132812495 0.13649999999999984 C 4.6110161132812495 0.07499999999999996 4.55251611328125 0.013499999999999845 4.46251611328125 0.013499999999999845 L 4.2120161132812495 0.013499999999999845 C 4.13251611328125 0.013499999999999845 4.069516113281249 0.053999999999999826 4.069516113281249 0.12899999999999978 L 4.069516113281249 0.4274999999999999 C 4.069516113281249 0.49349999999999994 4.10701611328125 0.5249999999999999 4.15051611328125 0.5549999999999999 L 4.398016113281249 0.726 C 4.41751611328125 0.7394999999999998 4.4250161132812496 0.7529999999999999 4.4250161132812496 0.7725 L 4.4250161132812496 0.9809999999999999 L 4.27051611328125 0.9809999999999999 L 4.27051611328125 0.8399999999999999 C 4.27051611328125 0.8009999999999999 4.2585161132812495 0.7874999999999999 4.24501611328125 0.7785 C 4.22101611328125 0.7605 4.13851611328125 0.7049999999999998 4.10851611328125 0.7049999999999998 C 4.08751611328125 0.7049999999999998 4.069516113281249 0.7214999999999999 4.069516113281249 0.7484999999999999 L 4.069516113281249 1.023 C 4.069516113281249 1.0844999999999998 4.12951611328125 1.146 4.21801611328125 1.146 M 4.723499267578125 1.1099999999999999 C 4.723499267578125 1.137 4.735499267578125 1.1475 4.760999267578125 1.1475 L 4.909499267578125 1.1475 C 4.9349992675781245 1.1475 4.946999267578125 1.137 4.946999267578125 1.1099999999999999 L 4.946999267578125 0.9674999999999999 C 4.946999267578125 0.9404999999999999 4.9349992675781245 0.9299999999999999 4.909499267578125 0.9299999999999999 L 4.759499267578125 0.9299999999999999 C 4.733999267578125 0.9299999999999999 4.723499267578125 0.9404999999999999 4.723499267578125 0.9674999999999999 M 5.293468505859375 0.16499999999999992 C 5.293468505859375 0.10499999999999998 5.357968505859375 0.07049999999999979 5.357968505859375 0.038999999999999924 C 5.357968505859375 0.025499999999999856 5.345968505859375 0.013499999999999845 5.324968505859375 0.013499999999999845 L 5.060968505859375 0.013499999999999845 C 5.039968505859375 0.013499999999999845 5.027968505859375 0.025499999999999856 5.027968505859375 0.038999999999999924 C 5.027968505859375 0.07049999999999979 5.092468505859375 0.10499999999999998 5.092468505859375 0.16499999999999992 L 5.092468505859375 0.9944999999999999 C 5.092468505859375 1.0545 5.027968505859375 1.089 5.027968505859375 1.1204999999999998 C 5.027968505859375 1.134 5.039968505859375 1.146 5.060968505859375 1.146 L 5.324968505859375 1.146 C 5.345968505859375 1.146 5.357968505859375 1.134 5.357968505859375 1.1204999999999998 C 5.357968505859375 1.089 5.293468505859375 1.0545 5.293468505859375 0.9944999999999999 M 5.701483154296875 1.146 C 5.725483154296875 1.146 5.743483154296875 1.131 5.743483154296875 1.1084999999999998 C 5.743483154296875 1.0739999999999998 5.678983154296875 1.0379999999999998 5.678983154296875 1.0065 L 5.678983154296875 0.5129999999999999 L 5.981983154296875 1.1039999999999999 C 5.995483154296875 1.131 6.005983154296875 1.146 6.046483154296875 1.146 L 6.140983154296875 1.146 C 6.1739831542968755 1.146 6.194983154296875 1.125 6.194983154296875 1.0935 L 6.194983154296875 0.16499999999999992 C 6.194983154296875 0.10499999999999998 6.259483154296875 0.07049999999999979 6.259483154296875 0.038999999999999924 C 6.259483154296875 0.025499999999999856 6.247483154296875 0.013499999999999845 6.226483154296875 0.013499999999999845 L 5.969983154296875 0.013499999999999845 C 5.948983154296875 0.013499999999999845 5.936983154296875 0.025499999999999856 5.936983154296875 0.038999999999999924 C 5.936983154296875 0.07049999999999979 6.001483154296875 0.10499999999999998 6.001483154296875 0.16499999999999992 L 6.001483154296875 0.696 L 5.699983154296875 0.05999999999999983 C 5.690983154296875 0.038999999999999924 5.6804831542968754 0.013499999999999845 5.6339831542968755 0.013499999999999845 L 5.453983154296875 0.013499999999999845 C 5.432983154296875 0.013499999999999845 5.420983154296875 0.025499999999999856 5.420983154296875 0.038999999999999924 C 5.420983154296875 0.07049999999999979 5.485483154296875 0.10499999999999998 5.485483154296875 0.16499999999999992 L 5.485483154296875 0.9944999999999999 C 5.485483154296875 1.0545 5.420983154296875 1.089 5.420983154296875 1.1204999999999998 C 5.420983154296875 1.134 5.432983154296875 1.146 5.453983154296875 1.146 M 6.923981689453125 0.7289999999999999 C 6.923981689453125 0.7124999999999999 6.910481689453126 0.7004999999999999 6.898481689453125 0.7004999999999999 C 6.880481689453125 0.7004999999999999 6.763481689453125 0.7799999999999999 6.739481689453125 0.7979999999999998 C 6.727481689453125 0.8069999999999999 6.722981689453126 0.8144999999999999 6.722981689453126 0.837 L 6.722981689453126 0.9614999999999999 C 6.722981689453126 0.9719999999999999 6.713981689453125 0.9809999999999999 6.703481689453126 0.9809999999999999 L 6.572981689453125 0.9809999999999999 C 6.562481689453126 0.9809999999999999 6.553481689453125 0.9719999999999999 6.553481689453125 0.9614999999999999 L 6.553481689453125 0.19799999999999984 C 6.553481689453125 0.1874999999999999 6.562481689453126 0.17849999999999988 6.572981689453125 0.17849999999999988 L 6.688481689453125 0.17849999999999988 C 6.6989816894531256 0.17849999999999988 6.707981689453125 0.1874999999999999 6.707981689453125 0.19799999999999984 L 6.707981689453125 0.38849999999999985 C 6.707981689453125 0.4049999999999999 6.7214816894531255 0.4169999999999999 6.733481689453125 0.4169999999999999 C 6.751481689453125 0.4169999999999999 6.868481689453125 0.3374999999999999 6.892481689453125 0.3194999999999999 C 6.904481689453125 0.3104999999999999 6.9089816894531255 0.30299999999999994 6.9089816894531255 0.28049999999999986 L 6.9089816894531255 0.13649999999999984 C 6.9089816894531255 0.07499999999999996 6.848981689453125 0.013499999999999845 6.760481689453125 0.013499999999999845 L 6.494981689453125 0.013499999999999845 C 6.413981689453125 0.013499999999999845 6.352481689453125 0.053999999999999826 6.352481689453125 0.12899999999999978 L 6.352481689453125 1.0305 C 6.352481689453125 1.1055 6.413981689453125 1.146 6.494981689453125 1.146 L 6.775481689453125 1.146 C 6.866981689453125 1.146 6.923981689453125 1.0815 6.923981689453125 1.0245" fill="#fffdfa" fill-rule="nonzero"></path></g><g></g><g clip-path="url(#SvgjsClipPath1012)"><g clip-path="url(#aaa108369-53e3-41a2-9857-08b1b8404434110b156c-039c-49c6-a6dc-118a7b95a9d7)"><path d=" M 3.484444922094908 -3.5158403262631204 C 3.7531471416146203 -3.5158403262631204 4.00573321909402 -3.4134518996947394 4.19577189029057 -3.2276070201071922 L 4.376284663403812 -3.404165646846232 C 4.129989273337918 -3.6451289304378225 3.807247053370763 -3.7656105722336175 3.484444922094908 -3.7656105722336175 C 3.161642790819053 -3.7656105722336175 2.838900570851898 -3.645128930437822 2.5926051807860038 -3.4041656468462316 L 2.7731179538992463 -3.2276070201071922 C 2.9631566250957966 -3.4134518996947394 3.215742702575196 -3.5158403262631204 3.484444922094908 -3.5158403262631204" fill="#cf9645" transform="matrix(1,0,0,1,0,0)" fill-rule="nonzero"></path></g><g clip-path="url(#aaa108369-53e3-41a2-9857-08b1b8404434110b156c-039c-49c6-a6dc-118a7b95a9d7)"><path d=" M 3.484444922094908 -3.015101608148125 C 3.6150093232857423 -3.0156950224435572 3.7405472394781873 -2.9648082539457965 3.833847674433584 -2.873471274381213 L 4.014360447546826 -3.0500898124289524 C 3.8680570317013108 -3.1932778402220654 3.6762210212437596 -3.264871854118622 3.484444922094908 -3.264871854118622 C 3.2926688229460566 -3.264871854118622 3.100832812488505 -3.1932778402220654 2.954529396642989 -3.0500898124289524 L 3.135042169756232 -2.873471274381213 C 3.2283426047116284 -2.9648082539457965 3.353880520904073 -3.0156950224435572 3.484444922094908 -3.015101608148125" fill="#cf9645" transform="matrix(1,0,0,1,0,0)" fill-rule="nonzero"></path></g><g clip-path="url(#aaa108369-53e3-41a2-9857-08b1b8404434110b156c-039c-49c6-a6dc-118a7b95a9d7)"><path d=" M 3.650159601959239 -2.3694973455964146 C 3.5578413092450045 -2.279919465009285 3.411048534944812 -2.279919465009285 3.318730242230577 -2.3694973455964146 C 3.274878853114432 -2.4120356130192127 3.2501299564781574 -2.470523578657935 3.2501299564781574 -2.531617346938743 C 3.2501299564781574 -2.5927111152195508 3.274878853114432 -2.651199080858272 3.318730242230577 -2.693737348281071 C 3.411073984254389 -2.783252433560836 3.557815859935426 -2.783252433560836 3.650159601959239 -2.693737348281071 C 3.694010991075384 -2.651199080858273 3.7187598877116583 -2.5927111152195508 3.7187598877116583 -2.531617346938743 C 3.7187598877116583 -2.470523578657935 3.694010991075384 -2.412035613019213 3.650159601959239 -2.3694973455964146" fill="#cf9645" transform="matrix(1,0,0,1,0,0)" fill-rule="nonzero"></path></g><g clip-path="url(#aaa108369-53e3-41a2-9857-08b1b8404434110b156c-039c-49c6-a6dc-118a7b95a9d7)"><path d=" M 3.484444922094908 -4.0158601086737145 C 3.8896850141420285 -4.0158601086737145 4.2706011148569285 -3.861468666153693 4.557156904369255 -3.5811436527461717 L 4.737669677482497 -3.757762190793911 C 4.391621958431024 -4.096320996257878 3.9380334402629664 -4.265630354644212 3.484444922094908 -4.265630354644212 C 3.0308564039268497 -4.265630354644212 2.5772678857587916 -4.096320996257878 2.2312201667073186 -3.757762190793911 L 2.4117329398205607 -3.5811436527461717 C 2.698288729332887 -3.861468666153693 3.0792048300477877 -4.0158601086737145 3.484444922094908 -4.0158601086737145" fill="#cf9645" transform="matrix(1,0,0,1,0,0)" fill-rule="nonzero"></path></g><g clip-path="url(#aaa108369-53e3-41a2-9857-08b1b8404434110b156c-039c-49c6-a6dc-118a7b95a9d7)"><path d=" M 2.481889082308316 -1.0473745852037708 L 1.793088766183872 -1.0473745852037708 L 1.793088766183872 -1.0477939643646712 L 1.5378066798129704 -1.0477939643646712 L 1.5378066798129704 -1.0473745852037708 C 1.088052485401715 -1.0473745852037708 0.7221142118618261 -1.4054045659952537 0.7221142118618261 -1.8453932170884007 C 0.7221142118618261 -2.285441779490249 1.0880524854017153 -2.6434717602817313 1.5378066798129704 -2.6434717602817313 L 1.9717442887274133 -2.6434717602817313 C 1.9921019255713834 -2.912908667907366 2.087302005502371 -3.171305920605837 2.2466173730432315 -3.3895472875234214 L 2.063887881508086 -3.5683226326843616 C 1.9113344871128022 -3.3690358772614606 1.8046692743333896 -3.1385211826702797 1.7515103179460387 -2.893242006252227 L 1.5378066798129704 -2.893242006252227 C 0.9463023290174033 -2.8932420062522284 0.46683212549092445 -2.424136459130858 0.46683212549092445 -1.8453932170884007 C 0.46683212549092445 -1.2667098863546435 0.946302329017403 -0.7976043392332732 1.5378066798129704 -0.7976043392332732 L 2.7018234965461896 -0.7976043392332732 C 2.61710107914673 -0.8700737288863434 2.5430560652112457 -0.9541635308740939 2.481889082308317 -1.04737458520377 M 5.4311430756855446 -2.893242006252229 L 5.217439437552477 -2.893242006252229 C 5.164275833614702 -3.1385086037757586 5.057633447155352 -3.36901817803702 4.90512178529913 -3.568322632684363 L 4.722332382455285 -3.3895472875234205 C 4.881647749996145 -3.1713059206058363 4.976847829927133 -2.912908667907365 4.997205466771103 -2.643471760281731 L 5.4311430756855446 -2.643471760281731 C 5.8808972700968 -2.6434717602817317 6.246835543636689 -2.285441779490249 6.246835543636689 -1.8453932170884015 C 6.246835543636689 -1.4054045659952537 5.8808972700968 -1.0473745852037708 5.4311430756855446 -1.0473745852037708 L 5.4311430756855446 -1.0477939643646712 L 5.175860989314643 -1.0477939643646712 L 5.175860989314643 -1.0473745852037708 L 4.4870606731902 -1.0473745852037708 C 4.425932583272994 -0.954151860117916 4.351905507974805 -0.8700595230829968 4.267186170261025 -0.7976043392332728 L 5.431143075685545 -0.7976043392332728 C 6.022647426481113 -0.7976043392332737 6.502117630007591 -1.2667098863546444 6.502117630007591 -1.8453932170884007 C 6.502117630007591 -2.424136459130858 6.022647426481114 -2.893242006252229 5.431143075685545 -2.893242006252229" fill="#ba8437" transform="matrix(1,0,0,1,0,0)" fill-rule="nonzero"></path></g><g clip-path="url(#aaa108369-53e3-41a2-9857-08b1b8404434110b156c-039c-49c6-a6dc-118a7b95a9d7)"><path d=" M 4.487060673190199 -1.0473745852037708 C 4.275274196935532 -0.7241530747670155 3.9051421317866395 -0.5093710330773455 3.4844449220949074 -0.5093710330773455 C 3.0637477124031753 -0.5093710330773455 2.6936156472542825 -0.7241530747670155 2.4818890823083155 -1.0473745852037708 L 2.177659456729475 -1.0473745852037708 C 2.4150280617990627 -0.5755131178821982 2.9115729883050543 -0.24995506640614096 3.4844449220949074 -0.24995506640614096 C 4.0573767671934595 -0.24995506640614096 4.553921693699452 -0.5755131178821982 4.791230387460339 -1.0473745852037708 Z" fill="#ba8437" transform="matrix(1,0,0,1,0,0)" fill-rule="nonzero"></path></g></g></g><defs><clipPath id="SvgjsClipPath1012"><path d=" M 0.46683212549092445 -4.26567034958677 h 6.035300592768149 v 4.01567034958677 h -6.035300592768149 Z"></path></clipPath><clipPath id="aaa108369-53e3-41a2-9857-08b1b8404434110b156c-039c-49c6-a6dc-118a7b95a9d7"><path d=" M 0.46683212549092445 -0.24995506640614096 L 6.502117630007591 -0.24995506640614096 L 6.502117630007591 -4.2656303546442125 L 0.46683212549092445 -4.2656303546442125 Z"></path></clipPath></defs></svg>