<svg xmlns="http://www.w3.org/2000/svg" version="1.1" xmlns:xlink="http://www.w3.org/1999/xlink" xmlns:svgjs="http://svgjs.dev/svgjs" viewBox="0 0 11.996096323506192 1.7444668887250074"><g transform="matrix(1,0,0,1,1.9623212101148146,0.36973344436250366)"><rect width="11.996096323506192" height="11.996096323506192" x="-1.9623212101148146" y="-5.495548161753096" fill="#ffffff"></rect><g><path d=" M 0.2805 1.005 L 0.2805 0.9809999999999999 L 0.432 0.9209999999999999 L 0.432 0.09749999999999992 L 0.195 0.09749999999999992 L 0.0885 0.32399999999999984 L 0.0645 0.32399999999999984 L 0.0645 0.014999999999999902 L 0.9555 0.014999999999999902 L 0.9555 0.32399999999999984 L 0.9315 0.32399999999999984 L 0.8265 0.09749999999999992 L 0.588 0.09749999999999992 L 0.588 0.9209999999999999 L 0.741 0.9809999999999999 L 0.741 1.005 L 0.2805 1.005 M 1.018480224609375 1.005 L 1.018480224609375 0.9809999999999999 L 1.112980224609375 0.9314999999999999 L 1.498480224609375 0.00749999999999984 L 1.580980224609375 0.00749999999999984 L 1.9619802246093752 0.9269999999999999 L 2.062480224609375 0.9809999999999999 L 2.062480224609375 1.005 L 1.666480224609375 1.005 L 1.666480224609375 0.9809999999999999 L 1.7984802246093752 0.9284999999999999 L 1.687480224609375 0.6584999999999999 L 1.325980224609375 0.6584999999999999 L 1.2164802246093749 0.9299999999999999 L 1.342480224609375 0.9809999999999999 L 1.342480224609375 1.005 L 1.018480224609375 1.005 M 1.360480224609375 0.5759999999999998 L 1.654480224609375 0.5759999999999998 L 1.507480224609375 0.2144999999999999 L 1.360480224609375 0.5759999999999998 M 2.506452392578125 1.0199999999999998 Q 2.411952392578125 1.0199999999999998 2.345202392578125 1.002 Q 2.278452392578125 0.9839999999999999 2.207952392578125 0.9494999999999999 L 2.192952392578125 0.702 L 2.216952392578125 0.702 L 2.296452392578125 0.8654999999999999 Q 2.348952392578125 0.9089999999999999 2.399952392578125 0.9284999999999999 Q 2.450952392578125 0.9479999999999998 2.501952392578125 0.9479999999999998 Q 2.588952392578125 0.9479999999999998 2.639202392578125 0.9029999999999999 Q 2.689452392578125 0.8579999999999999 2.689452392578125 0.7799999999999999 Q 2.689452392578125 0.7184999999999999 2.661702392578125 0.6817499999999999 Q 2.633952392578125 0.6449999999999999 2.579202392578125 0.6157499999999999 Q 2.524452392578125 0.5864999999999999 2.444952392578125 0.5474999999999999 Q 2.338452392578125 0.49649999999999983 2.281452392578125 0.4402499999999999 Q 2.224452392578125 0.3839999999999999 2.224452392578125 0.2819999999999999 Q 2.224452392578125 0.22799999999999987 2.250702392578125 0.17774999999999985 Q 2.276952392578125 0.12749999999999984 2.321952392578125 0.08774999999999988 Q 2.366952392578125 0.04799999999999982 2.422452392578125 0.02399999999999991 Q 2.477952392578125 -2.220446049250313e-16 2.537952392578125 -2.220446049250313e-16 Q 2.608452392578125 -2.220446049250313e-16 2.669952392578125 0.016499999999999848 Q 2.731452392578125 0.03299999999999992 2.791452392578125 0.06449999999999989 L 2.806452392578125 0.3044999999999999 L 2.782452392578125 0.3044999999999999 L 2.704452392578125 0.1439999999999999 Q 2.656452392578125 0.10649999999999993 2.617452392578125 0.08999999999999986 Q 2.578452392578125 0.0734999999999999 2.528952392578125 0.0734999999999999 Q 2.464452392578125 0.0734999999999999 2.421702392578125 0.11699999999999988 Q 2.378952392578125 0.16049999999999986 2.378952392578125 0.22649999999999992 Q 2.378952392578125 0.29999999999999993 2.424702392578125 0.34199999999999986 Q 2.470452392578125 0.3839999999999999 2.572452392578125 0.43199999999999983 Q 2.662452392578125 0.4754999999999999 2.721702392578125 0.5152499999999999 Q 2.7809523925781248 0.5549999999999999 2.809452392578125 0.6044999999999998 Q 2.837952392578125 0.6539999999999999 2.837952392578125 0.7304999999999999 Q 2.837952392578125 0.8009999999999999 2.807952392578125 0.8549999999999999 Q 2.777952392578125 0.9089999999999999 2.728452392578125 0.9457499999999999 Q 2.678952392578125 0.9824999999999999 2.621202392578125 1.00125 Q 2.563452392578125 1.0199999999999998 2.506452392578125 1.0199999999999998 M 3.008975830078125 1.005 L 3.008975830078125 0.9809999999999999 L 3.130475830078125 0.9209999999999999 L 3.130475830078125 0.09899999999999987 L 3.008975830078125 0.038999999999999924 L 3.008975830078125 0.014999999999999902 L 3.409475830078125 0.014999999999999902 L 3.409475830078125 0.038999999999999924 L 3.2879758300781248 0.09899999999999987 L 3.2879758300781248 0.9209999999999999 L 3.409475830078125 0.9809999999999999 L 3.409475830078125 1.005 L 3.008975830078125 1.005 M 3.2879758300781248 0.49949999999999983 L 3.701975830078125 0.08999999999999986 L 3.595475830078125 0.038999999999999924 L 3.595475830078125 0.014999999999999902 L 3.9194758300781247 0.014999999999999902 L 3.9194758300781247 0.038999999999999924 L 3.824975830078125 0.0764999999999999 L 3.4409758300781252 0.45299999999999985 L 3.902975830078125 0.9404999999999999 L 3.997475830078125 0.9809999999999999 L 3.997475830078125 1.005 L 3.752975830078125 1.005 L 3.2879758300781248 0.49949999999999983 M 4.1129677734375 1.005 L 4.1129677734375 0.9809999999999999 L 4.2359677734375 0.9209999999999999 L 4.2359677734375 0.09899999999999987 L 4.1129677734375 0.038999999999999924 L 4.1129677734375 0.014999999999999902 L 4.5134677734375 0.014999999999999902 L 4.5134677734375 0.038999999999999924 L 4.3919677734375 0.09899999999999987 L 4.3919677734375 0.9209999999999999 L 4.5134677734375 0.9809999999999999 L 4.5134677734375 1.005 L 4.1129677734375 1.005 M 4.8899970703125 1.005 L 4.8899970703125 0.9809999999999999 L 5.0414970703125 0.9209999999999999 L 5.0414970703125 0.09749999999999992 L 4.8044970703125 0.09749999999999992 L 4.6979970703125 0.32399999999999984 L 4.6739970703125 0.32399999999999984 L 4.6739970703125 0.014999999999999902 L 5.5649970703125 0.014999999999999902 L 5.5649970703125 0.32399999999999984 L 5.5409970703125 0.32399999999999984 L 5.4359970703125 0.09749999999999992 L 5.1974970703125 0.09749999999999992 L 5.1974970703125 0.9209999999999999 L 5.3504970703125 0.9809999999999999 L 5.3504970703125 1.005 L 4.8899970703125 1.005 M 6.028486083984375 1.0199999999999998 Q 5.933986083984375 1.0199999999999998 5.867236083984375 1.002 Q 5.800486083984375 0.9839999999999999 5.729986083984375 0.9494999999999999 L 5.714986083984375 0.702 L 5.738986083984375 0.702 L 5.818486083984375 0.8654999999999999 Q 5.870986083984375 0.9089999999999999 5.921986083984375 0.9284999999999999 Q 5.972986083984375 0.9479999999999998 6.023986083984375 0.9479999999999998 Q 6.110986083984375 0.9479999999999998 6.161236083984375 0.9029999999999999 Q 6.211486083984375 0.8579999999999999 6.211486083984375 0.7799999999999999 Q 6.211486083984375 0.7184999999999999 6.183736083984375 0.6817499999999999 Q 6.155986083984375 0.6449999999999999 6.101236083984375 0.6157499999999999 Q 6.046486083984375 0.5864999999999999 5.966986083984375 0.5474999999999999 Q 5.860486083984375 0.49649999999999983 5.803486083984375 0.4402499999999999 Q 5.746486083984375 0.3839999999999999 5.746486083984375 0.2819999999999999 Q 5.746486083984375 0.22799999999999987 5.772736083984375 0.17774999999999985 Q 5.798986083984375 0.12749999999999984 5.843986083984375 0.08774999999999988 Q 5.888986083984375 0.04799999999999982 5.944486083984375 0.02399999999999991 Q 5.999986083984375 -2.220446049250313e-16 6.059986083984375 -2.220446049250313e-16 Q 6.130486083984375 -2.220446049250313e-16 6.191986083984375 0.016499999999999848 Q 6.253486083984375 0.03299999999999992 6.313486083984375 0.06449999999999989 L 6.328486083984375 0.3044999999999999 L 6.304486083984375 0.3044999999999999 L 6.2264860839843745 0.1439999999999999 Q 6.178486083984375 0.10649999999999993 6.139486083984375 0.08999999999999986 Q 6.100486083984375 0.0734999999999999 6.050986083984375 0.0734999999999999 Q 5.986486083984375 0.0734999999999999 5.943736083984375 0.11699999999999988 Q 5.900986083984375 0.16049999999999986 5.900986083984375 0.22649999999999992 Q 5.900986083984375 0.29999999999999993 5.946736083984375 0.34199999999999986 Q 5.9924860839843745 0.3839999999999999 6.094486083984375 0.43199999999999983 Q 6.184486083984375 0.4754999999999999 6.243736083984375 0.5152499999999999 Q 6.302986083984375 0.5549999999999999 6.331486083984375 0.6044999999999998 Q 6.359986083984375 0.6539999999999999 6.359986083984375 0.7304999999999999 Q 6.359986083984375 0.8009999999999999 6.329986083984375 0.8549999999999999 Q 6.299986083984375 0.9089999999999999 6.250486083984375 0.9457499999999999 Q 6.200986083984375 0.9824999999999999 6.143236083984375 1.00125 Q 6.085486083984375 1.0199999999999998 6.028486083984375 1.0199999999999998 M 6.61805126953125 1.0125 Q 6.57905126953125 1.0125 6.55055126953125 0.9839999999999999 Q 6.52205126953125 0.9554999999999999 6.52205126953125 0.9164999999999999 Q 6.52205126953125 0.8775 6.55055126953125 0.8489999999999999 Q 6.57905126953125 0.8204999999999999 6.61805126953125 0.8204999999999999 Q 6.65705126953125 0.8204999999999999 6.68555126953125 0.8489999999999999 Q 6.71405126953125 0.8775 6.71405126953125 0.9164999999999999 Q 6.71405126953125 0.9554999999999999 6.68555126953125 0.9839999999999999 Q 6.65705126953125 1.0125 6.61805126953125 1.0125 M 6.90459375 1.005 L 6.90459375 0.9809999999999999 L 7.02759375 0.9209999999999999 L 7.02759375 0.09899999999999987 L 6.90459375 0.038999999999999924 L 6.90459375 0.014999999999999902 L 7.30509375 0.014999999999999902 L 7.30509375 0.038999999999999924 L 7.18359375 0.09899999999999987 L 7.18359375 0.9209999999999999 L 7.30509375 0.9809999999999999 L 7.30509375 1.005 L 6.90459375 1.005 M 7.485123046875 1.005 L 7.485123046875 0.9809999999999999 L 7.606623046875 0.9209999999999999 L 7.606623046875 0.10199999999999987 L 7.486623046875 0.038999999999999924 L 7.486623046875 0.014999999999999902 L 7.722123046875 0.014999999999999902 L 8.296623046875 0.7214999999999998 L 8.296623046875 0.09749999999999992 L 8.142123046875 0.038999999999999924 L 8.142123046875 0.014999999999999902 L 8.521623046875 0.014999999999999902 L 8.521623046875 0.038999999999999924 L 8.401623046875 0.09749999999999992 L 8.401623046875 1.0125 L 8.337123046875 1.0125 L 7.711623046875 0.24449999999999983 L 7.711623046875 0.9224999999999999 L 7.866123046875 0.9809999999999999 L 7.866123046875 1.005 L 7.485123046875 1.005 M 9.2055908203125 1.0199999999999998 Q 9.0510908203125 1.0199999999999998 8.9385908203125 0.9569999999999999 Q 8.8260908203125 0.8939999999999999 8.7645908203125 0.7844999999999999 Q 8.7030908203125 0.6749999999999998 8.7030908203125 0.5354999999999999 Q 8.7030908203125 0.4274999999999999 8.7450908203125 0.3314999999999999 Q 8.7870908203125 0.23549999999999993 8.8598408203125 0.16049999999999986 Q 8.9325908203125 0.08549999999999991 9.0270908203125 0.042749999999999844 Q 9.1215908203125 -2.220446049250313e-16 9.2280908203125 -2.220446049250313e-16 Q 9.3045908203125 -2.220446049250313e-16 9.3570908203125 0.009749999999999925 Q 9.4095908203125 0.01949999999999985 9.4508408203125 0.03524999999999989 Q 9.4920908203125 0.05099999999999982 9.5340908203125 0.07199999999999984 L 9.5430908203125 0.33899999999999986 L 9.5160908203125 0.33899999999999986 L 9.4125908203125 0.1439999999999999 Q 9.3615908203125 0.10799999999999987 9.3203408203125 0.09149999999999991 Q 9.2790908203125 0.07499999999999984 9.2280908203125 0.07499999999999984 Q 9.1245908203125 0.07499999999999984 9.0420908203125 0.1289999999999999 Q 8.9595908203125 0.18299999999999983 8.9123408203125 0.2782499999999999 Q 8.8650908203125 0.37349999999999983 8.8650908203125 0.4979999999999999 Q 8.8650908203125 0.6375 8.910840820312501 0.73725 Q 8.9565908203125 0.8369999999999999 9.0345908203125 0.8894999999999998 Q 9.1125908203125 0.942 9.2070908203125 0.942 Q 9.2850908203125 0.942 9.3383408203125 0.9209999999999999 Q 9.3915908203125 0.8999999999999999 9.4335908203125 0.8714999999999999 L 9.5340908203125 0.7034999999999999 L 9.5595908203125 0.7034999999999999 L 9.5415908203125 0.9449999999999998 Q 9.4755908203125 0.9779999999999999 9.4005908203125 0.9989999999999999 Q 9.3255908203125 1.0199999999999998 9.2055908203125 1.0199999999999998" fill="#574848" fill-rule="nonzero"></path></g><g></g><g clip-path="url(#SvgjsClipPath1018)"><g clip-path="url(#SvgjsClipPath10166389c6d3-a12d-4e99-b129-e494ee648620)"><path d=" M -0.9063506436453675 0.15249283217709955 L -1.0085519856711893 -0.02452644620550115 L -1.1107533276970112 0.15249283217709955 L -1.0085519856711893 0.3295086970212225 Z M -0.7623641771125957 0.8042329066696212 L -0.6462185304048941 0.6030730841719033 L -0.7484028047383268 0.42606063286625817 L -0.864538210830595 0.6272068012100649 L -1.1525657605117838 0.6272068012100649 L -1.2687045801425298 0.42606063286625817 L -1.3709059221683515 0.6030764977103811 L -1.2547705160760834 0.8042260795926656 Z M -1.6171142119578121 1.0295264462055012 L -1.4406103778853616 1.0295264462055012 L -1.5288640016908257 0.8766750202458399 Z M -0.8924199931173991 0.5789393671337416 L -0.7762845870251309 0.37779319878993484 L -0.8784756884355193 0.2007670933303785 L -1.0085519856711893 0.42606063286625817 L -1.1386282829068595 0.2007670933303785 L -1.2408296249326813 0.37778637171297924 L -1.1246942188404132 0.5789359535952637 Z M -0.4882570373439421 0.8766477119380175 L -0.576531142380273 1.0295264462055012 L -0.40000000000000036 1.0295264462055012 Z M -0.6183128533487455 0.651371240094527 L -0.7344448459025359 0.8525105813613779 L -1.2826591254398432 0.8525105813613779 L -1.3987877044551555 0.6513780671714824 L -1.5009924600194553 0.8283973455540833 L -1.3848672945426204 1.0295264462055012 L -0.6322742257230144 1.0295264462055012 L -0.5161354060922683 0.8283700372462608 Z" fill="#b9625d" transform="matrix(1,0,0,1,0,0)" fill-rule="nonzero"></path></g></g></g><defs><clipPath id="SvgjsClipPath1018"><path d=" M -1.6171142119578121 -0.02452644620550115 h 1.217114211957812 v 1.0540528924110022 h -1.217114211957812 Z"></path></clipPath><clipPath id="SvgjsClipPath10166389c6d3-a12d-4e99-b129-e494ee648620"><path d=" M -1.6171142119578121 -0.02452644620550115 L -0.40000000000000013 -0.02452644620550115 L -0.40000000000000013 1.0295264462055012 L -1.6171142119578121 1.0295264462055012 Z"></path></clipPath></defs></svg>