<svg xmlns="http://www.w3.org/2000/svg" version="1.1" xmlns:xlink="http://www.w3.org/1999/xlink" xmlns:svgjs="http://svgjs.dev/svgjs" viewBox="0 0 4.692211424128659 4.7785429699791395"><g transform="matrix(1,0,0,1,0.39459509194714215,3.4044478780319976)"><g><path d=" M 0.1965 0.9180000000000001 C 0.1965 0.9120000000000001 0.189 0.8880000000000002 0.195 0.8820000000000002 C 0.198 0.8700000000000002 0.192 0.8550000000000002 0.195 0.8415000000000001 C 0.20400000000000001 0.6840000000000002 0.28650000000000003 0.42300000000000015 0.339 0.27000000000000024 C 0.3525 0.22950000000000015 0.363 0.18450000000000022 0.378 0.14400000000000024 L 0.3765 0.13500000000000023 C 0.36 0.11400000000000021 0.36 0.12000000000000022 0.339 0.10800000000000021 C 0.3225 0.10650000000000015 0.291 0.12000000000000022 0.2805 0.12300000000000022 L 0.2775 0.13050000000000017 L 0.279 0.14100000000000024 C 0.20400000000000001 0.34050000000000014 0.105 0.5745000000000002 0.0915 0.7920000000000003 C 0.0885 0.8685000000000002 0.1005 0.9030000000000002 0.14250000000000002 0.9660000000000002 C 0.156 0.9720000000000002 0.1815 0.9720000000000002 0.1965 0.9720000000000002 C 0.192 0.9675000000000002 0.1875 0.9630000000000002 0.1875 0.9585000000000002 C 0.1875 0.9570000000000002 0.189 0.9540000000000002 0.1905 0.9510000000000002 C 0.192 0.9570000000000002 0.1965 0.9570000000000002 0.201 0.9570000000000002 C 0.201 0.9420000000000002 0.192 0.9300000000000002 0.192 0.9225000000000002 L 0.192 0.9165000000000002 M 0.8445 0.13200000000000023 L 0.849 0.13050000000000017 C 0.852 0.12900000000000023 0.852 0.12900000000000023 0.852 0.12600000000000022 C 0.849 0.12000000000000022 0.8475 0.11400000000000021 0.846 0.10800000000000021 C 0.8055 0.013500000000000179 0.648 2.220446049250313e-16 0.5565 2.220446049250313e-16 C 0.41550000000000004 2.220446049250313e-16 0.2925 0.03300000000000014 0.1545 0.07800000000000018 C 0.07200000000000001 0.10800000000000021 -0.066 0.16500000000000015 -0.156 0.16500000000000015 C -0.165 0.16500000000000015 -0.1665 0.16500000000000015 -0.17400000000000002 0.1605000000000002 C -0.17250000000000001 0.17100000000000015 -0.165 0.1755000000000002 -0.159 0.18000000000000016 C -0.1545 0.18900000000000017 -0.14400000000000002 0.20100000000000018 -0.138 0.20700000000000018 C -0.138 0.21150000000000013 -0.1335 0.2130000000000002 -0.1335 0.2190000000000002 C -0.1275 0.2220000000000002 -0.114 0.2250000000000002 -0.108 0.2280000000000002 C -0.105 0.2280000000000002 -0.10200000000000001 0.2280000000000002 -0.099 0.2280000000000002 C -0.0135 0.2280000000000002 0.0645 0.18450000000000022 0.14400000000000002 0.1605000000000002 C 0.27 0.12000000000000022 0.4305 0.07350000000000023 0.579 0.07350000000000023 C 0.6435 0.07350000000000023 0.762 0.08400000000000019 0.807 0.13800000000000023 L 0.8115 0.13200000000000023 L 0.8085 0.14400000000000024 C 0.8085 0.1485000000000002 0.8130000000000001 0.15300000000000014 0.8130000000000001 0.15900000000000014 C 0.8160000000000001 0.1605000000000002 0.8190000000000001 0.16500000000000015 0.8205 0.16500000000000015 L 0.8250000000000001 0.16200000000000014 L 0.8280000000000001 0.15600000000000014 L 0.837 0.14700000000000013 L 0.8445 0.14700000000000013 C 0.8445 0.14100000000000024 0.846 0.13950000000000018 0.8445 0.13200000000000023 M 0.6765358886718751 0.6345000000000002 L 0.678035888671875 0.6345000000000002 C 0.663035888671875 0.6885000000000002 0.651035888671875 0.7470000000000002 0.651035888671875 0.8040000000000002 C 0.651035888671875 0.8535000000000001 0.669035888671875 0.9075000000000002 0.720035888671875 0.9270000000000002 C 0.7230358886718751 0.9300000000000002 0.750035888671875 0.9360000000000002 0.757535888671875 0.9360000000000002 C 0.837035888671875 0.9360000000000002 0.949535888671875 0.7560000000000002 0.999035888671875 0.6660000000000001 L 1.002035888671875 0.6375000000000002 C 0.991535888671875 0.6345000000000002 1.005035888671875 0.6195000000000002 0.993035888671875 0.6210000000000002 C 0.991535888671875 0.6195000000000002 1.005035888671875 0.5880000000000002 1.002035888671875 0.5835000000000001 C 0.9690358886718751 0.6300000000000001 0.801035888671875 0.8820000000000002 0.756035888671875 0.8820000000000002 C 0.751535888671875 0.8820000000000002 0.7470358886718751 0.8490000000000002 0.7470358886718751 0.8430000000000002 C 0.7470358886718751 0.7425000000000002 0.774035888671875 0.6525000000000002 0.802535888671875 0.5565000000000002 C 0.813035888671875 0.5190000000000001 0.832535888671875 0.4800000000000002 0.832535888671875 0.44100000000000017 C 0.832535888671875 0.4095000000000002 0.777035888671875 0.4005000000000002 0.751535888671875 0.4005000000000002 C 0.7470358886718751 0.4005000000000002 0.742535888671875 0.4035000000000002 0.739535888671875 0.40800000000000014 L 0.742535888671875 0.41400000000000015 C 0.721535888671875 0.44100000000000017 0.703535888671875 0.4680000000000002 0.687035888671875 0.4905000000000002 C 0.667535888671875 0.46350000000000025 0.618035888671875 0.44850000000000023 0.586535888671875 0.44850000000000023 C 0.483035888671875 0.44850000000000023 0.36453588867187503 0.6825000000000002 0.372035888671875 0.7785000000000002 C 0.375035888671875 0.8310000000000002 0.409535888671875 0.8940000000000002 0.469535888671875 0.8940000000000002 C 0.525035888671875 0.8940000000000002 0.639035888671875 0.6930000000000002 0.6765358886718751 0.6345000000000002 M 0.468035888671875 0.8190000000000002 L 0.465035888671875 0.8085000000000002 C 0.465035888671875 0.7260000000000002 0.532535888671875 0.5910000000000002 0.5940358886718751 0.5340000000000003 C 0.598535888671875 0.5280000000000002 0.6120358886718751 0.5190000000000001 0.621035888671875 0.5190000000000001 C 0.631535888671875 0.5190000000000001 0.648035888671875 0.5310000000000001 0.651035888671875 0.5385000000000002 C 0.5940358886718751 0.6255000000000002 0.5265358886718751 0.7320000000000002 0.468035888671875 0.8190000000000002 M 0.93904248046875 0.8985000000000002 C 0.93904248046875 0.9255000000000002 0.98404248046875 0.9600000000000002 1.00954248046875 0.9600000000000002 C 1.07254248046875 0.9600000000000002 1.17304248046875 0.9030000000000002 1.17304248046875 0.8340000000000002 C 1.17304248046875 0.7470000000000002 1.0755424804687501 0.6600000000000001 1.0755424804687501 0.5880000000000002 C 1.0755424804687501 0.5430000000000001 1.14754248046875 0.4860000000000002 1.19254248046875 0.4860000000000002 C 1.21354248046875 0.4950000000000002 1.20604248046875 0.5040000000000002 1.20154248046875 0.5280000000000002 C 1.20004248046875 0.5370000000000001 1.19554248046875 0.5580000000000003 1.19704248046875 0.5655000000000001 C 1.20604248046875 0.5700000000000002 1.20754248046875 0.5745000000000002 1.21954248046875 0.5745000000000002 C 1.24204248046875 0.5745000000000002 1.2630424804687501 0.5040000000000002 1.27204248046875 0.4890000000000002 L 1.27204248046875 0.4845000000000002 C 1.27204248046875 0.46650000000000014 1.19704248046875 0.40800000000000014 1.17904248046875 0.40800000000000014 C 1.09204248046875 0.40800000000000014 0.98104248046875 0.5085000000000002 0.98104248046875 0.5940000000000002 C 0.98104248046875 0.6900000000000002 1.07854248046875 0.7965000000000002 1.07854248046875 0.8445000000000003 C 1.07854248046875 0.8760000000000002 1.02604248046875 0.9045000000000002 0.99754248046875 0.9045000000000002 L 0.99454248046875 0.8985000000000002 L 1.02604248046875 0.8505000000000003 L 1.02154248046875 0.8445000000000003 L 1.01254248046875 0.8535000000000001 C 1.01554248046875 0.8505000000000003 1.01854248046875 0.8415000000000001 1.02154248046875 0.8400000000000002 L 1.01854248046875 0.8355000000000001 L 1.01254248046875 0.8430000000000002 C 1.00954248046875 0.8415000000000001 1.0110424804687501 0.8415000000000001 1.00954248046875 0.8370000000000002 L 0.99004248046875 0.8550000000000002 L 0.99004248046875 0.8535000000000001 L 0.99904248046875 0.8415000000000001 L 0.99304248046875 0.8400000000000002 C 0.98554248046875 0.8415000000000001 0.93904248046875 0.8715000000000002 0.93904248046875 0.8985000000000002 M 1.446040283203125 0.5565000000000002 L 1.4430402832031248 0.5550000000000002 L 1.446040283203125 0.5550000000000002 C 1.4790402832031249 0.42000000000000015 1.546540283203125 0.2925000000000002 1.546540283203125 0.15000000000000013 C 1.546540283203125 0.13050000000000017 1.521040283203125 0.10350000000000015 1.495540283203125 0.10350000000000015 C 1.483540283203125 0.10350000000000015 1.4850402832031249 0.10800000000000021 1.474540283203125 0.11400000000000021 L 1.4730402832031249 0.12150000000000016 C 1.477540283203125 0.14700000000000013 1.2615402832031248 0.6870000000000003 1.2615402832031248 0.8505000000000003 C 1.2615402832031248 0.8820000000000002 1.270540283203125 0.9795000000000001 1.311040283203125 0.9795000000000001 C 1.3215402832031249 0.9795000000000001 1.3560402832031249 0.9780000000000002 1.366540283203125 0.9750000000000002 L 1.365040283203125 0.9720000000000002 C 1.357540283203125 0.9690000000000002 1.353040283203125 0.9630000000000002 1.3500402832031249 0.9585000000000002 L 1.3500402832031249 0.9570000000000002 L 1.3560402832031249 0.9585000000000002 C 1.3500402832031249 0.9495000000000002 1.347040283203125 0.9405000000000002 1.347040283203125 0.9300000000000002 C 1.347040283203125 0.9270000000000002 1.347040283203125 0.9210000000000002 1.3500402832031249 0.9180000000000001 C 1.3500402832031249 0.8760000000000002 1.371040283203125 0.8160000000000002 1.383040283203125 0.7725000000000002 C 1.3965402832031248 0.7830000000000001 1.405540283203125 0.8160000000000002 1.4205402832031249 0.8310000000000002 C 1.456540283203125 0.8700000000000002 1.5015402832031248 0.8940000000000002 1.5555402832031249 0.8940000000000002 L 1.566040283203125 0.8940000000000002 L 1.564540283203125 0.8910000000000002 C 1.557040283203125 0.8910000000000002 1.540540283203125 0.8850000000000002 1.533040283203125 0.8850000000000002 L 1.533040283203125 0.8805000000000002 C 1.539040283203125 0.8805000000000002 1.542040283203125 0.8805000000000002 1.545040283203125 0.8820000000000002 C 1.5495402832031249 0.8820000000000002 1.554040283203125 0.8820000000000002 1.557040283203125 0.8850000000000002 C 1.563040283203125 0.8865000000000002 1.569040283203125 0.8820000000000002 1.575040283203125 0.8820000000000002 L 1.5720402832031248 0.8805000000000002 C 1.582540283203125 0.8805000000000002 1.5960402832031249 0.8805000000000002 1.6080402832031249 0.8775000000000002 C 1.609540283203125 0.8775000000000002 1.611040283203125 0.8775000000000002 1.612540283203125 0.8775000000000002 C 1.617040283203125 0.8775000000000002 1.624540283203125 0.8760000000000002 1.6305402832031248 0.8760000000000002 L 1.6320402832031249 0.8760000000000002 C 1.6320402832031249 0.8760000000000002 1.629040283203125 0.8760000000000002 1.6305402832031248 0.8730000000000002 C 1.636540283203125 0.8715000000000002 1.641040283203125 0.8700000000000002 1.647040283203125 0.8640000000000002 L 1.6545402832031249 0.8625000000000002 C 1.645540283203125 0.8520000000000002 1.635040283203125 0.8505000000000003 1.6260402832031249 0.8505000000000003 C 1.617040283203125 0.8505000000000003 1.6080402832031249 0.8520000000000002 1.599040283203125 0.8520000000000002 C 1.506040283203125 0.8520000000000002 1.447540283203125 0.7635000000000002 1.4325402832031249 0.6825000000000002 C 1.4385402832031249 0.6660000000000001 1.542040283203125 0.5730000000000002 1.5495402832031249 0.5715000000000001 C 1.573540283203125 0.5520000000000003 1.6845402832031249 0.4215000000000002 1.7010402832031248 0.39600000000000024 C 1.7130402832031248 0.3720000000000002 1.7250402832031249 0.34950000000000014 1.7355402832031248 0.3240000000000002 L 1.7355402832031248 0.31950000000000023 L 1.7310402832031249 0.31800000000000017 L 1.728040283203125 0.31800000000000017 C 1.722040283203125 0.31500000000000017 1.719040283203125 0.31200000000000017 1.716040283203125 0.3105000000000002 C 1.708540283203125 0.31200000000000017 1.7010402832031248 0.3135000000000002 1.693540283203125 0.3135000000000002 C 1.6905402832031249 0.3135000000000002 1.6905402832031249 0.3135000000000002 1.6890402832031248 0.31200000000000017 L 1.681540283203125 0.31200000000000017 L 1.6770402832031248 0.31800000000000017 C 1.668040283203125 0.34950000000000014 1.482040283203125 0.5205000000000002 1.446040283203125 0.5565000000000002 M 1.8000263671875 0.45450000000000024 L 1.8240263671875 0.44550000000000023 C 1.8375263671875 0.43500000000000016 1.8705263671875 0.42000000000000015 1.8705263671875 0.4035000000000002 C 1.8705263671875 0.4035000000000002 1.8705263671875 0.40200000000000014 1.8690263671875 0.4005000000000002 L 1.8645263671875 0.38400000000000023 C 1.8600263671875001 0.37650000000000017 1.8450263671875 0.36750000000000016 1.8330263671875 0.36750000000000016 C 1.8255263671875 0.36750000000000016 1.8180263671875 0.3690000000000002 1.8090263671875 0.3720000000000002 C 1.7880263671875 0.38700000000000023 1.7745263671875 0.40500000000000014 1.7730263671875 0.42900000000000016 C 1.7730263671875 0.43200000000000016 1.7835263671875001 0.4470000000000002 1.7880263671875 0.4470000000000002 L 1.7910263671875 0.4470000000000002 L 1.8000263671875 0.4530000000000002 M 2.0220263671875003 0.5760000000000002 L 2.0145263671875 0.5820000000000002 C 1.9140263671875 0.7080000000000002 1.8105263671875 0.8640000000000002 1.7640263671875 0.8610000000000002 C 1.7595263671875 0.8610000000000002 1.7565263671875 0.8595000000000002 1.7565263671875 0.8550000000000002 C 1.7430263671875001 0.7860000000000003 1.7985263671875 0.6465000000000002 1.8240263671875 0.5310000000000001 C 1.8255263671875 0.5220000000000002 1.8225263671875 0.5100000000000002 1.8195263671875002 0.5010000000000001 C 1.8150263671875 0.4935000000000002 1.8090263671875 0.4890000000000002 1.7985263671875 0.4875000000000002 C 1.7880263671875 0.4875000000000002 1.7610263671875002 0.4875000000000002 1.7505263671875 0.4890000000000002 L 1.7445263671875 0.4935000000000002 C 1.7325263671875 0.5235000000000002 1.6650263671875 0.6885000000000002 1.6605263671875001 0.7890000000000001 C 1.6560263671875 0.8685000000000002 1.7160263671875 0.9045000000000002 1.7610263671875002 0.9165000000000002 C 1.7880263671875 0.9165000000000002 1.8015263671875001 0.9045000000000002 1.8240263671875 0.8955000000000002 C 1.8945263671875001 0.8355000000000001 1.9440263671875 0.7680000000000002 2.0055263671875 0.6735000000000002 C 2.0025263671875 0.6735000000000002 2.0055263671875 0.6720000000000002 2.0055263671875 0.6705000000000002 C 2.0085263671875 0.6570000000000003 2.0145263671875 0.6390000000000002 2.0205263671875002 0.6270000000000002 L 2.0175263671875 0.6255000000000002 C 2.0205263671875002 0.6210000000000002 2.0220263671875003 0.6165000000000003 2.0220263671875003 0.6120000000000002 C 2.0220263671875003 0.6000000000000002 2.0205263671875002 0.5895000000000001 2.0220263671875003 0.5760000000000002 M 1.8840080566406252 0.33150000000000024 C 1.9365080566406252 0.33150000000000024 2.010008056640625 0.3240000000000002 2.0880080566406254 0.31500000000000017 C 2.0175080566406254 0.5115000000000002 1.933508056640625 0.7005000000000001 1.9440080566406253 0.8370000000000002 C 1.9470080566406252 0.8775000000000002 1.9695080566406251 0.9510000000000002 2.032508056640625 0.9660000000000002 C 2.056508056640625 0.9660000000000002 2.0745080566406253 0.9630000000000002 2.092508056640625 0.9435000000000002 C 2.149508056640625 0.8940000000000002 2.2620080566406253 0.7530000000000002 2.277008056640625 0.6960000000000002 L 2.277008056640625 0.6840000000000002 C 2.278508056640625 0.6795000000000002 2.281508056640625 0.6690000000000003 2.2845080566406253 0.6600000000000001 C 2.2845080566406253 0.6570000000000003 2.299508056640625 0.6270000000000002 2.2980080566406254 0.6255000000000002 C 2.299508056640625 0.6210000000000002 2.2980080566406254 0.6180000000000002 2.2980080566406254 0.6150000000000002 L 2.2965080566406253 0.6120000000000002 C 2.2965080566406253 0.6090000000000002 2.2950080566406252 0.5925000000000002 2.293508056640625 0.5895000000000001 L 2.289008056640625 0.5880000000000002 L 2.2860080566406253 0.5895000000000001 C 2.2260080566406253 0.7005000000000001 2.0745080566406253 0.9180000000000001 2.0385080566406253 0.9165000000000002 C 2.011508056640625 0.8325000000000002 2.0610080566406253 0.6990000000000002 2.083508056640625 0.6165000000000003 C 2.1450080566406253 0.4845000000000002 2.185508056640625 0.3825000000000002 2.199008056640625 0.30300000000000016 C 2.2260080566406253 0.3015000000000002 2.253008056640625 0.2985000000000002 2.277008056640625 0.2985000000000002 C 2.2875080566406254 0.2985000000000002 2.2980080566406254 0.2985000000000002 2.3070080566406252 0.30000000000000016 C 2.362508056640625 0.30000000000000016 2.4015080566406253 0.3105000000000002 2.398508056640625 0.31800000000000017 L 2.4015080566406253 0.31800000000000017 C 2.421008056640625 0.2625000000000002 2.349008056640625 0.24600000000000022 2.2650080566406254 0.24600000000000022 C 2.245508056640625 0.24600000000000022 2.2245080566406252 0.24750000000000016 2.2050080566406254 0.24900000000000022 C 2.206508056640625 0.2310000000000002 2.2050080566406254 0.2130000000000002 2.2035080566406253 0.19800000000000018 C 2.200508056640625 0.19500000000000017 2.197508056640625 0.19200000000000017 2.197508056640625 0.18600000000000017 C 2.197508056640625 0.1695000000000002 2.151008056640625 0.1605000000000002 2.137508056640625 0.1605000000000002 C 2.1345080566406254 0.16200000000000014 2.1345080566406254 0.1695000000000002 2.1330080566406253 0.1755000000000002 C 2.125508056640625 0.20250000000000024 2.116508056640625 0.2310000000000002 2.1075080566406252 0.25800000000000023 C 2.0955080566406252 0.2595000000000002 2.083508056640625 0.2595000000000002 2.077508056640625 0.26100000000000023 C 2.013008056640625 0.27000000000000024 1.927508056640625 0.27900000000000014 1.8600080566406252 0.27900000000000014 C 1.8195080566406252 0.27900000000000014 1.786508056640625 0.27600000000000013 1.7655080566406252 0.26700000000000024 C 1.7565080566406253 0.26400000000000023 1.7565080566406253 0.26700000000000024 1.7490080566406252 0.2565000000000002 C 1.7490080566406252 0.2565000000000002 1.7505080566406253 0.24600000000000022 1.746008056640625 0.2520000000000002 L 1.746008056640625 0.2565000000000002 C 1.7205080566406252 0.3300000000000002 1.8420080566406252 0.33150000000000024 1.8795080566406253 0.33150000000000024 C 1.881008056640625 0.33150000000000024 1.8825080566406251 0.33150000000000024 1.8840080566406252 0.33150000000000024 M 2.2335395507812503 0.8985000000000002 C 2.2335395507812503 0.9255000000000002 2.2785395507812503 0.9600000000000002 2.3040395507812503 0.9600000000000002 C 2.3670395507812505 0.9600000000000002 2.4675395507812503 0.9030000000000002 2.4675395507812503 0.8340000000000002 C 2.4675395507812503 0.7470000000000002 2.37003955078125 0.6600000000000001 2.37003955078125 0.5880000000000002 C 2.37003955078125 0.5430000000000001 2.4420395507812502 0.4860000000000002 2.48703955078125 0.4860000000000002 C 2.50803955078125 0.4950000000000002 2.5005395507812502 0.5040000000000002 2.4960395507812505 0.5280000000000002 C 2.4945395507812504 0.5370000000000001 2.4900395507812503 0.5580000000000003 2.4915395507812503 0.5655000000000001 C 2.5005395507812502 0.5700000000000002 2.5020395507812503 0.5745000000000002 2.5140395507812503 0.5745000000000002 C 2.5365395507812503 0.5745000000000002 2.55753955078125 0.5040000000000002 2.5665395507812505 0.4890000000000002 L 2.5665395507812505 0.4845000000000002 C 2.5665395507812505 0.46650000000000014 2.4915395507812503 0.40800000000000014 2.4735395507812505 0.40800000000000014 C 2.3865395507812504 0.40800000000000014 2.27553955078125 0.5085000000000002 2.27553955078125 0.5940000000000002 C 2.27553955078125 0.6900000000000002 2.3730395507812503 0.7965000000000002 2.3730395507812503 0.8445000000000003 C 2.3730395507812503 0.8760000000000002 2.3205395507812505 0.9045000000000002 2.2920395507812503 0.9045000000000002 L 2.28903955078125 0.8985000000000002 L 2.3205395507812505 0.8505000000000003 L 2.3160395507812503 0.8445000000000003 L 2.3070395507812504 0.8535000000000001 C 2.31003955078125 0.8505000000000003 2.3130395507812502 0.8415000000000001 2.3160395507812503 0.8400000000000002 L 2.3130395507812502 0.8355000000000001 L 2.3070395507812504 0.8430000000000002 C 2.3040395507812503 0.8415000000000001 2.3055395507812504 0.8415000000000001 2.3040395507812503 0.8370000000000002 L 2.2845395507812505 0.8550000000000002 L 2.2845395507812505 0.8535000000000001 L 2.2935395507812504 0.8415000000000001 L 2.28753955078125 0.8400000000000002 C 2.2800395507812503 0.8415000000000001 2.2335395507812503 0.8715000000000002 2.2335395507812503 0.8985000000000002 M 2.6040373535156256 0.9480000000000002 C 2.6325373535156253 0.9435000000000002 2.6730373535156255 0.9135000000000002 2.6685373535156254 0.8640000000000002 C 2.6670373535156253 0.8445000000000003 2.6565373535156254 0.8280000000000002 2.6280373535156256 0.8280000000000002 L 2.617537353515625 0.8280000000000002 C 2.5830373535156252 0.8280000000000002 2.5665373535156255 0.8730000000000002 2.5665373535156255 0.8970000000000002 C 2.5665373535156255 0.9075000000000002 2.5725373535156253 0.9240000000000002 2.5770373535156255 0.9315000000000002 C 2.5770373535156255 0.9420000000000002 2.5950373535156253 0.9435000000000002 2.6040373535156256 0.9480000000000002 M 2.8875227050781254 0.45450000000000024 L 2.9115227050781254 0.44550000000000023 C 2.9250227050781255 0.43500000000000016 2.9580227050781254 0.42000000000000015 2.9580227050781254 0.4035000000000002 C 2.9580227050781254 0.4035000000000002 2.9580227050781254 0.40200000000000014 2.9565227050781258 0.4005000000000002 L 2.9520227050781256 0.38400000000000023 C 2.9475227050781254 0.37650000000000017 2.9325227050781257 0.36750000000000016 2.9205227050781257 0.36750000000000016 C 2.9130227050781254 0.36750000000000016 2.9055227050781256 0.3690000000000002 2.8965227050781257 0.3720000000000002 C 2.8755227050781254 0.38700000000000023 2.8620227050781257 0.40500000000000014 2.8605227050781257 0.42900000000000016 C 2.8605227050781257 0.43200000000000016 2.8710227050781256 0.4470000000000002 2.8755227050781254 0.4470000000000002 L 2.8785227050781255 0.4470000000000002 L 2.8875227050781254 0.4530000000000002 M 3.109522705078126 0.5760000000000002 L 3.1020227050781255 0.5820000000000002 C 3.0015227050781257 0.7080000000000002 2.8980227050781258 0.8640000000000002 2.8515227050781258 0.8610000000000002 C 2.8470227050781256 0.8610000000000002 2.8440227050781255 0.8595000000000002 2.8440227050781255 0.8550000000000002 C 2.8305227050781254 0.7860000000000003 2.8860227050781257 0.6465000000000002 2.9115227050781254 0.5310000000000001 C 2.9130227050781254 0.5220000000000002 2.9100227050781253 0.5100000000000002 2.9070227050781257 0.5010000000000001 C 2.9025227050781255 0.4935000000000002 2.8965227050781257 0.4890000000000002 2.8860227050781257 0.4875000000000002 C 2.8755227050781254 0.4875000000000002 2.8485227050781257 0.4875000000000002 2.8380227050781257 0.4890000000000002 L 2.8320227050781255 0.4935000000000002 C 2.8200227050781255 0.5235000000000002 2.7525227050781256 0.6885000000000002 2.7480227050781254 0.7890000000000001 C 2.7435227050781257 0.8685000000000002 2.8035227050781257 0.9045000000000002 2.8485227050781257 0.9165000000000002 C 2.8755227050781254 0.9165000000000002 2.8890227050781254 0.9045000000000002 2.9115227050781254 0.8955000000000002 C 2.9820227050781254 0.8355000000000001 3.0315227050781255 0.7680000000000002 3.0930227050781256 0.6735000000000002 C 3.0900227050781255 0.6735000000000002 3.0930227050781256 0.6720000000000002 3.0930227050781256 0.6705000000000002 C 3.0960227050781257 0.6570000000000003 3.1020227050781255 0.6390000000000002 3.1080227050781257 0.6270000000000002 L 3.1050227050781256 0.6255000000000002 C 3.1080227050781257 0.6210000000000002 3.109522705078126 0.6165000000000003 3.109522705078126 0.6120000000000002 C 3.109522705078126 0.6000000000000002 3.1080227050781257 0.5895000000000001 3.109522705078126 0.5760000000000002 M 3.5580043945312507 0.6060000000000002 C 3.5520043945312505 0.6105000000000003 3.5235043945312507 0.6540000000000001 3.516004394531251 0.6690000000000003 C 3.4620043945312506 0.7605000000000002 3.3885043945312505 0.8715000000000002 3.352504394531251 0.8805000000000002 L 3.351004394531251 0.8805000000000002 C 3.325504394531251 0.7980000000000003 3.399004394531251 0.6300000000000001 3.3810043945312507 0.5670000000000002 C 3.3795043945312506 0.5625000000000002 3.3795043945312506 0.5550000000000002 3.3780043945312506 0.5520000000000003 C 3.3705043945312507 0.5340000000000003 3.327004394531251 0.5175000000000002 3.3000043945312507 0.5130000000000001 C 3.2610043945312506 0.5160000000000002 3.1815043945312507 0.6210000000000002 3.1665043945312505 0.6375000000000002 L 3.1695043945312507 0.6330000000000002 C 3.1800043945312506 0.5985000000000003 3.2055043945312507 0.49950000000000017 3.1605043945312508 0.4845000000000002 C 3.1455043945312506 0.4800000000000002 3.1125043945312507 0.4740000000000002 3.103504394531251 0.47250000000000014 L 3.1020043945312508 0.4815000000000002 C 3.1020043945312508 0.4830000000000002 3.1020043945312508 0.4890000000000002 3.1020043945312508 0.4905000000000002 C 3.1065043945312505 0.5460000000000003 3.009004394531251 0.7770000000000001 3.0135043945312505 0.8790000000000002 C 3.0135043945312505 0.8895000000000002 3.0165043945312506 0.8940000000000002 3.0195043945312507 0.9030000000000002 L 3.022504394531251 0.9045000000000002 C 3.0285043945312506 0.9075000000000002 3.0285043945312506 0.9135000000000002 3.034504394531251 0.9180000000000001 C 3.0405043945312507 0.9180000000000001 3.0615043945312506 0.9270000000000002 3.067504394531251 0.9330000000000002 L 3.0705043945312505 0.9300000000000002 C 3.0750043945312506 0.9315000000000002 3.0720043945312505 0.9330000000000002 3.0765043945312507 0.9345000000000002 C 3.081004394531251 0.9345000000000002 3.0825043945312505 0.9345000000000002 3.0840043945312505 0.9345000000000002 C 3.0840043945312505 0.9345000000000002 3.0855043945312506 0.9345000000000002 3.0885043945312507 0.9345000000000002 C 3.0900043945312508 0.9330000000000002 3.093004394531251 0.9315000000000002 3.0975043945312506 0.9315000000000002 C 3.1005043945312507 0.9255000000000002 3.103504394531251 0.9135000000000002 3.1095043945312506 0.8970000000000002 C 3.1470043945312507 0.7830000000000001 3.2175043945312507 0.6825000000000002 3.2895043945312508 0.5895000000000001 C 3.2895043945312508 0.5895000000000001 3.292504394531251 0.5820000000000002 3.292504394531251 0.5895000000000001 C 3.2955043945312505 0.6285000000000002 3.2475043945312505 0.7545000000000002 3.2520043945312507 0.8310000000000002 C 3.2535043945312507 0.8895000000000002 3.2970043945312506 0.9315000000000002 3.3540043945312505 0.9315000000000002 C 3.4575043945312505 0.9090000000000003 3.5220043945312507 0.7680000000000002 3.5655043945312506 0.6840000000000002 C 3.5685043945312507 0.6690000000000003 3.561004394531251 0.6540000000000001 3.5670043945312506 0.6375000000000002 C 3.5670043945312506 0.6300000000000001 3.5685043945312507 0.6255000000000002 3.561004394531251 0.6210000000000002 C 3.562504394531251 0.6150000000000002 3.562504394531251 0.6075000000000002 3.5580043945312507 0.6060000000000002 M 3.7575432128906257 0.4980000000000002 C 3.778543212890626 0.5100000000000002 3.7815432128906257 0.5790000000000002 3.7920432128906256 0.5850000000000002 C 3.7935432128906257 0.5865000000000002 3.796543212890626 0.5865000000000002 3.798043212890626 0.5865000000000002 C 3.813043212890626 0.5865000000000002 3.8400432128906257 0.5670000000000002 3.8400432128906257 0.5400000000000003 C 3.8400432128906257 0.49950000000000017 3.8295432128906257 0.4800000000000002 3.802543212890626 0.4560000000000002 C 3.7950432128906257 0.4500000000000002 3.738043212890626 0.4365000000000002 3.718543212890626 0.43200000000000016 C 3.7095432128906256 0.43200000000000016 3.7020432128906258 0.43200000000000016 3.693043212890626 0.43800000000000017 C 3.603043212890626 0.4920000000000002 3.508543212890626 0.6690000000000003 3.508543212890626 0.7815000000000002 C 3.508543212890626 0.8580000000000002 3.579043212890626 0.9345000000000002 3.655543212890626 0.9345000000000002 C 3.739543212890626 0.9345000000000002 3.813043212890626 0.8595000000000002 3.867043212890626 0.7920000000000003 C 3.871543212890626 0.7890000000000001 3.8745432128906256 0.7860000000000003 3.8760432128906257 0.7800000000000002 C 3.880543212890626 0.7785000000000002 3.880543212890626 0.7770000000000001 3.882043212890626 0.7740000000000002 L 3.8850432128906256 0.7695000000000002 C 3.891043212890626 0.7635000000000002 3.894043212890626 0.7590000000000002 3.895543212890626 0.7530000000000002 C 3.901543212890626 0.7470000000000002 3.904543212890626 0.7425000000000002 3.9105432128906257 0.7365000000000002 L 3.9075432128906256 0.7335000000000003 C 3.9105432128906257 0.7290000000000002 3.9120432128906257 0.7260000000000002 3.913543212890626 0.7245000000000001 C 3.913543212890626 0.7230000000000002 3.913543212890626 0.7230000000000002 3.916543212890626 0.7200000000000002 L 3.9210432128906256 0.7155000000000002 L 3.9210432128906256 0.7110000000000002 C 3.9225432128906257 0.7095000000000002 3.9225432128906257 0.7095000000000002 3.9225432128906257 0.7095000000000002 L 3.9225432128906257 0.7080000000000002 C 3.925543212890626 0.7065000000000001 3.928543212890626 0.7020000000000002 3.930043212890626 0.6975000000000002 L 3.9345432128906257 0.6930000000000002 C 3.939043212890626 0.6870000000000003 3.9450432128906257 0.6780000000000002 3.952543212890626 0.6705000000000002 C 3.9555432128906256 0.6555000000000002 3.988543212890626 0.5970000000000002 4.002043212890626 0.5790000000000002 L 4.0005432128906255 0.5745000000000002 C 4.002043212890626 0.5730000000000002 4.002043212890626 0.5730000000000002 4.003543212890626 0.5700000000000002 C 4.003543212890626 0.5670000000000002 4.003543212890626 0.5670000000000002 4.003543212890626 0.5655000000000001 L 4.003543212890626 0.5640000000000002 L 3.999043212890626 0.5430000000000001 L 3.999043212890626 0.5355000000000002 L 3.9945432128906257 0.5340000000000003 L 3.9930432128906257 0.5280000000000002 C 3.9585432128906257 0.5535000000000002 3.919543212890626 0.6165000000000003 3.891043212890626 0.6555000000000002 C 3.8505432128906256 0.7110000000000002 3.7245432128906257 0.8730000000000002 3.6525432128906257 0.8730000000000002 C 3.625543212890626 0.8715000000000002 3.613543212890626 0.8160000000000002 3.613543212890626 0.7980000000000003 C 3.613543212890626 0.6525000000000002 3.730543212890626 0.4980000000000002 3.7575432128906257 0.4980000000000002" fill="#431a10" fill-rule="nonzero"></path></g><g></g><g clip-path="url(#SvgjsClipPath1001)"><g clip-path="url(#SvgjsClipPath1000a5c46bf5-5263-4fb5-8976-83c2b5747173)"><path d=" M 1.9928155390968305 -3.0098527860848554 L 2.314998957264401 -3.0098527860848554 L 2.314998957264401 -2.6876693679172843 L 1.9928155390968305 -2.6876693679172843 Z" fill="#431a10" transform="matrix(1,0,0,1,0,0)" fill-rule="nonzero"></path></g><g clip-path="url(#SvgjsClipPath1000a5c46bf5-5263-4fb5-8976-83c2b5747173)"><path d=" M 2.4376693679172843 -1.1397076576409078 L 2.759389878874845 -1.1397076576409078 L 2.759389878874845 -3.0098527860848554 L 2.4376693679172843 -3.0098527860848554 L 2.4376693679172843 -2.5654618644744125 L 2.360826771055479 -2.5654618644744125 L 2.314998957264402 -2.5654618644744125 L 1.9928155390968305 -2.5654618644744125 L 1.5447213598063005 -2.5654618644744125 L 0.8892447504308971 -2.5654618644744125 L 0.8892447504308971 -2.2432784463068414 L 2.4376693679172843 -2.2432784463068414 L 2.4376693679172843 -1.8002762463264308 L 2.4376693679172843 -1.1397076576409078 Z" fill="#b88059" transform="matrix(1,0,0,1,0,0)" fill-rule="evenodd"></path></g><g clip-path="url(#SvgjsClipPath1000a5c46bf5-5263-4fb5-8976-83c2b5747173)"><path d=" M 2.4376693679172843 -1.016574339778014 L 2.759389878874845 -1.016574339778014 L 2.759389878874845 -0.6943909216104429 L 2.4376693679172843 -0.6943909216104429 Z" fill="#3e7742" transform="matrix(1,0,0,1,0,0)" fill-rule="nonzero"></path></g><g clip-path="url(#SvgjsClipPath1000a5c46bf5-5263-4fb5-8976-83c2b5747173)"><path d=" M 0.8892447504308971 -0.5721834181675711 L 0.8892447504308971 -0.25 L 2.759389878874845 -0.25 L 2.759389878874845 -0.5721834181675711 L 2.314998957264402 -0.5721834181675711 L 2.314998957264402 -0.625417747318822 L 2.314998957264402 -0.6948538288204538 L 2.314998957264402 -1.016574339778014 L 2.314998957264402 -1.8002762463264308 L 2.314998957264402 -2.1206080356539587 L 1.9928155390968305 -2.1206080356539587 L 1.9928155390968305 -0.5721834181675711 L 1.501208082065278 -0.5721834181675711 L 0.8892447504308971 -0.5721834181675711 Z" fill="#431a10" transform="matrix(1,0,0,1,0,0)" fill-rule="evenodd"></path></g><g clip-path="url(#SvgjsClipPath1000a5c46bf5-5263-4fb5-8976-83c2b5747173)"><path d=" M 0.4443909216104432 -0.5721834181675711 L 0.7665743397780144 -0.5721834181675711 L 0.7665743397780144 -0.25046290721001085 L 0.4443909216104432 -0.25046290721001085 Z" fill="#3e7742" transform="matrix(1,0,0,1,0,0)" fill-rule="nonzero"></path></g><g clip-path="url(#SvgjsClipPath1000a5c46bf5-5263-4fb5-8976-83c2b5747173)"><path d=" M 0.3217205109575605 -2.1206080356539587 L 2.45083054195558e-16 -2.1206080356539587 L 2.45083054195558e-16 -0.25 L 0.3217205109575605 -0.25 L 0.3217205109575605 -0.6948538288204538 L 0.3832871698890073 -0.6948538288204538 L 0.4443909216104432 -0.6948538288204538 L 0.7665743397780144 -0.6948538288204538 L 1.501208082065278 -0.6948538288204538 L 1.8701451284439479 -0.6948538288204538 L 1.8701451284439479 -1.016574339778014 L 0.3217205109575605 -1.016574339778014 L 0.3217205109575605 -2.1206080356539587 Z" fill="#3e7742" transform="matrix(1,0,0,1,0,0)" fill-rule="evenodd"></path></g><g clip-path="url(#SvgjsClipPath1000a5c46bf5-5263-4fb5-8976-83c2b5747173)"><path d=" M 2.45083054195558e-16 -2.51685660742327 L 0.3217205109575605 -2.51685660742327 L 0.3217205109575605 -2.2432784463068414 L 2.45083054195558e-16 -2.2432784463068414 Z" fill="#b88059" transform="matrix(1,0,0,1,0,0)" fill-rule="nonzero"></path></g><g clip-path="url(#SvgjsClipPath1000a5c46bf5-5263-4fb5-8976-83c2b5747173)"><path d=" M 1.8701451284439479 -2.6876693679172843 L 1.8701451284439479 -3.0098527860848554 L 2.45083054195558e-16 -3.0098527860848554 L 2.45083054195558e-16 -2.6876693679172843 L 0.4443909216104432 -2.6876693679172843 L 0.4443909216104432 -2.6024944412752826 L 0.4443909216104432 -2.51685660742327 L 0.4443909216104432 -2.2432784463068414 L 0.4443909216104432 -1.5688226413209918 L 0.4443909216104432 -1.1397076576409078 L 0.7665743397780144 -1.1397076576409078 L 0.7665743397780144 -2.6876693679172843 L 1.5447213598063005 -2.6876693679172843 L 1.8701451284439479 -2.6876693679172843 Z" fill="#3e7742" transform="matrix(1,0,0,1,0,0)" fill-rule="evenodd"></path></g></g></g><defs><clipPath id="SvgjsClipPath1001"><path d=" M 0 -3.0098527860848554 h 2.759389878874845 v 2.7598527860848554 h -2.759389878874845 Z"></path></clipPath><clipPath id="SvgjsClipPath1000a5c46bf5-5263-4fb5-8976-83c2b5747173"><path d=" M 2.45083054195558e-16 -3.0098527860848554 L 2.759389878874845 -3.0098527860848554 L 2.759389878874845 -0.25 L 4.90166108391116e-16 -0.25 Z"></path></clipPath></defs></svg>